<svg id="visual" viewBox="0 0 1920 1080" width="1920" height="1080" xmlns="http://www.w3.org/2000/svg" xmlns:xlink="http://www.w3.org/1999/xlink" version="1.1"><rect x="0" y="0" width="1920" height="1080" fill="#F3E5CE"></rect><defs><linearGradient id="grad1_0" x1="43.8%" y1="0%" x2="100%" y2="100%"><stop offset="14.444444444444446%" stop-color="#ffc7a1" stop-opacity="1"></stop><stop offset="85.55555555555554%" stop-color="#ffc7a1" stop-opacity="1"></stop></linearGradient></defs><defs><linearGradient id="grad1_1" x1="43.8%" y1="0%" x2="100%" y2="100%"><stop offset="14.444444444444446%" stop-color="#ffc7a1" stop-opacity="1"></stop><stop offset="85.55555555555554%" stop-color="#fbcfaa" stop-opacity="1"></stop></linearGradient></defs><defs><linearGradient id="grad1_2" x1="43.8%" y1="0%" x2="100%" y2="100%"><stop offset="14.444444444444446%" stop-color="#f8d7b5" stop-opacity="1"></stop><stop offset="85.55555555555554%" stop-color="#fbcfaa" stop-opacity="1"></stop></linearGradient></defs><defs><linearGradient id="grad1_3" x1="43.8%" y1="0%" x2="100%" y2="100%"><stop offset="14.444444444444446%" stop-color="#f8d7b5" stop-opacity="1"></stop><stop offset="85.55555555555554%" stop-color="#f5dec1" stop-opacity="1"></stop></linearGradient></defs><defs><linearGradient id="grad1_4" x1="43.8%" y1="0%" x2="100%" y2="100%"><stop offset="14.444444444444446%" stop-color="#f3e5ce" stop-opacity="1"></stop><stop offset="85.55555555555554%" stop-color="#f5dec1" stop-opacity="1"></stop></linearGradient></defs><defs><linearGradient id="grad2_0" x1="0%" y1="0%" x2="56.3%" y2="100%"><stop offset="14.444444444444446%" stop-color="#ffc7a1" stop-opacity="1"></stop><stop offset="85.55555555555554%" stop-color="#ffc7a1" stop-opacity="1"></stop></linearGradient></defs><defs><linearGradient id="grad2_1" x1="0%" y1="0%" x2="56.3%" y2="100%"><stop offset="14.444444444444446%" stop-color="#fbcfaa" stop-opacity="1"></stop><stop offset="85.55555555555554%" stop-color="#ffc7a1" stop-opacity="1"></stop></linearGradient></defs><defs><linearGradient id="grad2_2" x1="0%" y1="0%" x2="56.3%" y2="100%"><stop offset="14.444444444444446%" stop-color="#fbcfaa" stop-opacity="1"></stop><stop offset="85.55555555555554%" stop-color="#f8d7b5" stop-opacity="1"></stop></linearGradient></defs><defs><linearGradient id="grad2_3" x1="0%" y1="0%" x2="56.3%" y2="100%"><stop offset="14.444444444444446%" stop-color="#f5dec1" stop-opacity="1"></stop><stop offset="85.55555555555554%" stop-color="#f8d7b5" stop-opacity="1"></stop></linearGradient></defs><defs><linearGradient id="grad2_4" x1="0%" y1="0%" x2="56.3%" y2="100%"><stop offset="14.444444444444446%" stop-color="#f5dec1" stop-opacity="1"></stop><stop offset="85.55555555555554%" stop-color="#f3e5ce" stop-opacity="1"></stop></linearGradient></defs><g transform="translate(1920, 0)"><path d="M0 1026C-112.6 1027.5 -225.2 1029 -317.1 975.8C-408.9 922.5 -479.9 814.5 -517.8 712.7C-555.7 611 -560.5 515.5 -621.3 451.4C-682.2 387.3 -799.1 354.6 -875.9 284.6C-952.7 214.6 -989.4 107.3 -1026 0L0 0Z" fill="#f4e2c8"></path><path d="M0 820.8C-90.1 822 -180.2 823.2 -253.6 780.6C-327.1 738 -384 651.6 -414.3 570.2C-444.6 488.8 -448.4 412.4 -497.1 361.1C-545.7 309.9 -639.3 283.7 -700.7 227.7C-762.2 171.7 -791.5 85.8 -820.8 0L0 0Z" fill="#f6dbbb"></path><path d="M0 615.6C-67.6 616.5 -135.1 617.4 -190.2 585.5C-245.3 553.5 -288 488.7 -310.7 427.6C-333.4 366.6 -336.3 309.3 -372.8 270.9C-409.3 232.4 -479.5 212.8 -525.6 170.8C-571.6 128.8 -593.6 64.4 -615.6 0L0 0Z" fill="#f9d3b0"></path><path d="M0 410.4C-45 411 -90.1 411.6 -126.8 390.3C-163.6 369 -192 325.8 -207.1 285.1C-222.3 244.4 -224.2 206.2 -248.5 180.6C-272.9 154.9 -319.7 141.8 -350.4 113.8C-381.1 85.8 -395.7 42.9 -410.4 0L0 0Z" fill="#fdcba6"></path><path d="M0 205.2C-22.5 205.5 -45 205.8 -63.4 195.2C-81.8 184.5 -96 162.9 -103.6 142.5C-111.1 122.2 -112.1 103.1 -124.3 90.3C-136.4 77.5 -159.8 70.9 -175.2 56.9C-190.5 42.9 -197.9 21.5 -205.2 0L0 0Z" fill="#ffc7a1"></path></g><g transform="translate(0, 1080)"><path d="M0 -1026C104.2 -1015.2 208.5 -1004.4 317.1 -975.8C425.6 -947.2 538.6 -900.9 586 -806.6C633.5 -712.3 615.4 -570 665 -483.2C714.7 -396.3 832 -364.9 903.5 -293.6C975 -222.3 1000.5 -111.1 1026 0L0 0Z" fill="#f4e2c8"></path><path d="M0 -820.8C83.4 -812.1 166.8 -803.5 253.6 -780.6C340.5 -757.8 430.9 -720.7 468.8 -645.3C506.8 -569.8 492.3 -456 532 -386.5C571.7 -317 665.6 -291.9 722.8 -234.9C780 -177.8 800.4 -88.9 820.8 0L0 0Z" fill="#f6dbbb"></path><path d="M0 -615.6C62.5 -609.1 125.1 -602.6 190.2 -585.5C255.4 -568.3 323.2 -540.5 351.6 -484C380.1 -427.4 369.2 -342 399 -289.9C428.8 -237.8 499.2 -218.9 542.1 -176.1C585 -133.4 600.3 -66.7 615.6 0L0 0Z" fill="#f9d3b0"></path><path d="M0 -410.4C41.7 -406.1 83.4 -401.7 126.8 -390.3C170.3 -378.9 215.4 -360.4 234.4 -322.6C253.4 -284.9 246.1 -228 266 -193.3C285.9 -158.5 332.8 -145.9 361.4 -117.4C390 -88.9 400.2 -44.5 410.4 0L0 0Z" fill="#fdcba6"></path><path d="M0 -205.2C20.8 -203 41.7 -200.9 63.4 -195.2C85.1 -189.4 107.7 -180.2 117.2 -161.3C126.7 -142.5 123.1 -114 133 -96.6C142.9 -79.3 166.4 -73 180.7 -58.7C195 -44.5 200.1 -22.2 205.2 0L0 0Z" fill="#ffc7a1"></path></g></svg>