<svg id="visual" viewBox="0 0 1900 800" width="1900" height="800" xmlns="http://www.w3.org/2000/svg" xmlns:xlink="http://www.w3.org/1999/xlink" version="1.1"><rect x="0" y="0" width="1900" height="800" fill="#f3e5ce"></rect><path d="M0 550L45.2 539.2C90.3 528.3 180.7 506.7 271.2 493.3C361.7 480 452.3 475 542.8 478C633.3 481 723.7 492 814.2 502.5C904.7 513 995.3 523 1085.8 523.7C1176.3 524.3 1266.7 515.7 1357.2 521.8C1447.7 528 1538.3 549 1628.8 548C1719.3 547 1809.7 524 1854.8 512.5L1900 501L1900 801L1854.8 801C1809.7 801 1719.3 801 1628.8 801C1538.3 801 1447.7 801 1357.2 801C1266.7 801 1176.3 801 1085.8 801C995.3 801 904.7 801 814.2 801C723.7 801 633.3 801 542.8 801C452.3 801 361.7 801 271.2 801C180.7 801 90.3 801 45.2 801L0 801Z" fill="#a36289"></path><path d="M0 573L45.2 576.5C90.3 580 180.7 587 271.2 582.2C361.7 577.3 452.3 560.7 542.8 563.3C633.3 566 723.7 588 814.2 599.5C904.7 611 995.3 612 1085.8 611.5C1176.3 611 1266.7 609 1357.2 607.2C1447.7 605.3 1538.3 603.7 1628.8 596.3C1719.3 589 1809.7 576 1854.8 569.5L1900 563L1900 801L1854.8 801C1809.7 801 1719.3 801 1628.8 801C1538.3 801 1447.7 801 1357.2 801C1266.7 801 1176.3 801 1085.8 801C995.3 801 904.7 801 814.2 801C723.7 801 633.3 801 542.8 801C452.3 801 361.7 801 271.2 801C180.7 801 90.3 801 45.2 801L0 801Z" fill="#864f6d"></path><path d="M0 657L45.2 658.8C90.3 660.7 180.7 664.3 271.2 653.5C361.7 642.7 452.3 617.3 542.8 610.8C633.3 604.3 723.7 616.7 814.2 615.7C904.7 614.7 995.3 600.3 1085.8 600.8C1176.3 601.3 1266.7 616.7 1357.2 632.5C1447.7 648.3 1538.3 664.7 1628.8 663.2C1719.3 661.7 1809.7 642.3 1854.8 632.7L1900 623L1900 801L1854.8 801C1809.7 801 1719.3 801 1628.8 801C1538.3 801 1447.7 801 1357.2 801C1266.7 801 1176.3 801 1085.8 801C995.3 801 904.7 801 814.2 801C723.7 801 633.3 801 542.8 801C452.3 801 361.7 801 271.2 801C180.7 801 90.3 801 45.2 801L0 801Z" fill="#6a3d53"></path><path d="M0 666L45.2 662.2C90.3 658.3 180.7 650.7 271.2 660.2C361.7 669.7 452.3 696.3 542.8 705C633.3 713.7 723.7 704.3 814.2 699.7C904.7 695 995.3 695 1085.8 691.8C1176.3 688.7 1266.7 682.3 1357.2 673.7C1447.7 665 1538.3 654 1628.8 657.5C1719.3 661 1809.7 679 1854.8 688L1900 697L1900 801L1854.8 801C1809.7 801 1719.3 801 1628.8 801C1538.3 801 1447.7 801 1357.2 801C1266.7 801 1176.3 801 1085.8 801C995.3 801 904.7 801 814.2 801C723.7 801 633.3 801 542.8 801C452.3 801 361.7 801 271.2 801C180.7 801 90.3 801 45.2 801L0 801Z" fill="#4f2c3b"></path><path d="M0 742L45.2 738.2C90.3 734.3 180.7 726.7 271.2 724.7C361.7 722.7 452.3 726.3 542.8 728.8C633.3 731.3 723.7 732.7 814.2 732C904.7 731.3 995.3 728.7 1085.8 725.7C1176.3 722.7 1266.7 719.3 1357.2 716.8C1447.7 714.3 1538.3 712.7 1628.8 717.8C1719.3 723 1809.7 735 1854.8 741L1900 747L1900 801L1854.8 801C1809.7 801 1719.3 801 1628.8 801C1538.3 801 1447.7 801 1357.2 801C1266.7 801 1176.3 801 1085.8 801C995.3 801 904.7 801 814.2 801C723.7 801 633.3 801 542.8 801C452.3 801 361.7 801 271.2 801C180.7 801 90.3 801 45.2 801L0 801Z" fill="#351c26"></path></svg>